HIERARCHY
ROOT Hips
{
    OFFSET 0.000000 0.000000 0.000000
    CHANNELS 6 Xposition Yposition Zposition Zrotation Xrotation Yrotation
    JOINT Spine
    {
        OFFSET -0.000000 0.081343 0.000000
        CHANNELS 3 Zrotation Xrotation Yrotation
        JOINT Spine1
        {
            OFFSET -0.000000 0.243280 0.000000
            CHANNELS 3 Zrotation Xrotation Yrotation
            JOINT Neck
            {
                OFFSET -0.000000 0.242281 0.022026
                CHANNELS 3 Zrotation Xrotation Yrotation
                JOINT Head
                {
                    OFFSET -0.000000 0.149025 -0.021289
                    CHANNELS 3 Zrotation Xrotation Yrotation
                    End Site
                    {
                        OFFSET -0.000000 0.198396 0.000000
                    }
                }
            }
            JOINT LeftShoulder
            {
                OFFSET 0.039707 0.224479 -0.002125
                CHANNELS 3 Zrotation Xrotation Yrotation
                JOINT LeftArm
                {
                    OFFSET 0.116942 0.000000 0.000000
                    CHANNELS 3 Zrotation Xrotation Yrotation
                    JOINT LeftForeArm
                    {
                        OFFSET 0.282002 0.000000 0.000000
                        CHANNELS 3 Zrotation Xrotation Yrotation
                        JOINT LeftHand
                        {
                            OFFSET 0.358743 0.000000 0.000000
                            CHANNELS 3 Zrotation Xrotation Yrotation
                            End Site
                            {
                                OFFSET 0.148797 0.000000 0.000000
                            }
                        }
                    }
                }
            }
            JOINT RightShoulder
            {
                OFFSET -0.039404 0.224479 -0.002125
                CHANNELS 3 Zrotation Xrotation Yrotation
                JOINT RightArm
                {
                    OFFSET -0.116942 0.000000 0.000000
                    CHANNELS 3 Zrotation Xrotation Yrotation
                    JOINT RightForeArm
                    {
                        OFFSET -0.282002 0.000000 0.000000
                        CHANNELS 3 Zrotation Xrotation Yrotation
                        JOINT RightHand
                        {
                            OFFSET -0.358743 0.000000 0.000000
                            CHANNELS 3 Zrotation Xrotation Yrotation
                            End Site
                            {
                                OFFSET -0.148797 0.000000 0.000000
                            }
                        }
                    }
                }
            }
        }
    }
    JOINT LeftUpLeg
    {
        OFFSET 0.099198 0.000000 0.000000
        CHANNELS 3 Zrotation Xrotation Yrotation
        JOINT LeftLeg
        {
            OFFSET -0.000000 -0.332973 0.000000
            CHANNELS 3 Zrotation Xrotation Yrotation
            JOINT LeftFoot
            {
                OFFSET -0.000000 -0.491254 0.000000
                CHANNELS 3 Zrotation Xrotation Yrotation
                JOINT LeftToeBase
                {
                    OFFSET -0.000000 -0.064479 0.148797
                    CHANNELS 3 Zrotation Xrotation Yrotation
                    End Site
                    {
                        OFFSET -0.000000 0.000000 0.039679
                    }
                }
            }
        }
    }
    JOINT RightUpLeg
    {
        OFFSET -0.099198 0.000000 0.000000
        CHANNELS 3 Zrotation Xrotation Yrotation
        JOINT RightLeg
        {
            OFFSET -0.000000 -0.332973 0.000000
            CHANNELS 3 Zrotation Xrotation Yrotation
            JOINT RightFoot
            {
                OFFSET -0.000000 -0.491254 0.000000
                CHANNELS 3 Zrotation Xrotation Yrotation
                JOINT RightToeBase
                {
                    OFFSET -0.000000 -0.064479 0.148797
                    CHANNELS 3 Zrotation Xrotation Yrotation
                    End Site
                    {
                        OFFSET -0.000000 0.000000 0.039679
                    }
                }
            }
        }
    }
}
MOTION
Frames:    9
Frame Time:    0.010000
-0.388721    0.877323    0.471139    -1.231891    -1.800695    -18.183599    0.984866    -1.258647    6.640148    -3.409284    4.282166    2.343802    7.759253    25.625511    29.742935    -19.548401    -11.841581    27.194952    -13.240266    13.982908    14.544991    -49.962826    -16.035511    -11.393565    31.097548    -48.301071    -114.312645    55.000084    -5.714645    -6.251584    3.957311    18.356424    6.568933    43.207958    16.928665    14.073020    -96.771194    -43.194138    11.823805    -38.328396    -30.541407    -7.083526    12.601929    -11.446989    5.190256    -4.721673    18.226370    2.209962    4.749122    -5.534205    6.381055    0.000000    0.000000    0.000000    -1.944403    -5.441848    -9.173955    1.905686    23.252325    -3.154393    4.932991    -14.432793    -7.325196    0.000000    0.000000    0.000000    
-0.387797    0.877269    0.474413    -1.152705    -1.998135    -18.696705    0.850233    -1.431176    6.841234    -3.432197    4.561482    2.420256    7.802962    25.685415    29.726713    -19.639929    -12.050499    27.130260    -13.184487    14.019806    14.555075    -49.984138    -16.075182    -11.492729    31.151760    -48.357086    -114.261223    55.070580    -5.645424    -6.046923    3.170456    15.816982    6.617873    45.203362    17.653526    12.477039    -95.082787    -43.852272    13.845088    -38.068172    -29.935453    -6.364408    12.507815    -10.955544    6.251323    -4.686217    18.325315    1.539922    4.928882    -5.770522    6.512312    0.000000    0.000000    0.000000    -2.249545    -5.381520    -9.247284    2.091024    23.672533    -1.036457    3.917098    -14.803888    -9.874971    0.000000    0.000000    0.000000    
-0.385884    0.877340    0.475129    -1.090913    -1.949602    -18.604288    0.846778    -1.262542    6.571953    -3.545696    4.264974    2.326169    7.840148    25.757860    29.735989    -19.743898    -12.198220    27.100187    -13.138631    14.063438    14.528749    -50.009480    -16.212547    -11.527704    30.723860    -48.264526    -114.621056    55.273693    -5.881379    -5.860207    3.371933    16.284189    6.700660    44.835007    17.770926    12.695005    -95.595642    -43.613251    13.246640    -38.105453    -30.074461    -6.501153    12.472933    -11.296844    6.407643    -4.871884    18.758556    1.100056    5.152531    -5.742164    6.863294    0.000000    0.000000    0.000000    -2.303771    -5.992505    -10.274198    0.582913    24.684072    1.624467    5.343961    -14.835098    -9.566578    0.000000    0.000000    0.000000    
-0.384427    0.877303    0.477083    -1.047916    -1.997186    -18.827175    0.618278    -0.563341    6.747674    -3.481879    3.078139    2.348188    7.952511    25.966337    29.525751    -19.470362    -12.246478    26.960226    -13.258175    14.347223    14.704556    -49.784122    -15.892444    -11.586581    30.642796    -48.375164    -114.650574    55.251675    -6.127326    -5.765009    3.783115    17.596476    5.681515    44.078167    18.165800    13.845372    -96.017212    -43.319599    12.674429    -38.781101    -29.931164    -7.240567    12.372858    -11.218697    6.815012    -4.855533    19.092550    0.995835    4.231872    -6.710930    7.331842    0.000000    0.000000    0.000000    -2.985451    -5.684156    -8.997324    2.043617    24.503302    1.795781    4.626071    -15.095447    -11.208015    0.000000    0.000000    0.000000    
-0.382946    0.877255    0.479032    -1.023520    -2.038147    -19.040308    0.593208    -0.554586    6.723899    -3.519129    3.029907    2.339787    8.295849    25.893562    29.528061    -19.872093    -11.882150    26.958263    -13.138762    14.039598    14.631603    -49.682411    -15.738496    -11.281722    30.627031    -48.400360    -114.633034    55.111374    -6.124424    -5.603910    3.867251    17.553448    5.716226    44.029713    18.570698    13.759647    -96.321945    -43.115368    12.324657    -38.699554    -29.959988    -7.287450    12.251369    -11.175815    7.072348    -4.809404    19.310873    0.977433    4.642844    -6.611872    6.633110    0.000000    0.000000    0.000000    -2.691263    -6.148218    -11.842469    -0.416032    25.234261    3.140911    6.043910    -14.768873    -8.641489    0.000000    0.000000    0.000000    
-0.381479    0.877243    0.480945    -1.015648    -2.053556    -19.277679    0.835900    -1.352439    6.509280    -3.722714    4.431920    2.316914    8.705639    25.212879    30.257624    -20.858522    -11.105018    27.625076    -12.896293    13.670813    14.676970    -49.958412    -16.117628    -11.583743    30.344540    -48.108585    -114.722282    55.079353    -6.122389    -5.531794    3.534322    16.137175    6.737465    44.748184    18.853558    12.627031    -96.543327    -42.884659    12.235445    -37.485912    -29.982540    -6.680039    12.136255    -11.098495    7.102785    -4.830730    19.455362    1.217252    4.719217    -6.786388    6.571431    0.000000    0.000000    0.000000    -2.997666    -5.450289    -11.783623    -0.077973    24.180151    -2.186496    7.549892    -14.078206    -2.634184    0.000000    0.000000    0.000000    
-0.379972    0.877262    0.482899    -1.010258    -2.056727    -19.533115    0.841246    -1.403847    6.546838    -3.678544    4.456729    2.328643    7.575701    25.448660    29.850988    -19.558445    -12.461352    27.172277    -12.957942    13.720215    14.707669    -49.919407    -16.136019    -11.720163    30.278236    -48.014378    -114.618256    54.896252    -6.211703    -5.510972    3.332209    17.214376    6.424582    44.435863    18.741928    13.847960    -96.841812    -42.597984    11.917524    -37.346474    -29.918003    -6.642787    11.880934    -11.143991    7.219543    -4.550516    19.775934    1.362953    4.665536    -7.014811    6.476340    0.000000    0.000000    0.000000    -3.061290    -5.439720    -12.107065    -0.457970    24.189827    -2.220289    7.914752    -13.918730    -1.898113    0.000000    0.000000    0.000000    
-0.378442    0.877316    0.484728    -0.992835    -2.028583    -19.802181    0.844993    -1.481540    6.609277    -3.635922    4.462925    2.347675    8.630555    25.142422    30.347612    -21.035034    -10.971916    27.692652    -13.039660    14.059658    14.762300    -49.978577    -16.405630    -12.056898    30.414021    -47.797905    -114.385010    54.409985    -5.854820    -5.523809    3.464183    16.072269    6.776699    44.895542    18.934258    12.467294    -96.409752    -42.908447    12.729649    -37.909653    -29.335396    -7.301704    11.698032    -11.069287    6.977577    -4.558942    19.837399    1.315616    4.808625    -7.160485    7.011416    0.000000    0.000000    0.000000    -3.191007    -5.508488    -12.167193    -0.623108    24.288588    -2.121843    8.182470    -13.823514    -1.603425    0.000000    0.000000    0.000000    
-0.376874    0.877452    0.486633    -0.976033    -2.006001    -20.062840    0.855516    -1.615909    6.684436    -3.571830    4.594428    2.374167    7.797236    25.311300    29.965456    -20.167627    -11.995112    27.240992    -12.998362    13.648466    14.590860    -49.779327    -16.183632    -11.690067    30.321722    -47.728500    -114.266731    54.279549    -6.084138    -5.568200    3.456673    16.420076    6.589132    44.758114    19.031382    12.919065    -96.699768    -42.659245    12.512586    -37.271095    -29.434860    -6.618128    11.647854    -10.811183    6.388158    -4.963421    19.615395    1.466861    5.064634    -7.284827    7.721960    0.000000    0.000000    0.000000    -3.334607    -5.542059    -12.163492    -0.721320    24.347820    -2.022835    8.363141    -13.708241    -1.439341    0.000000    0.000000    0.000000    
